<?xml version="1.0" encoding="UTF-8"?>
<svg id="Capa_2" data-name="Capa 2" xmlns="http://www.w3.org/2000/svg" viewBox="0 0 91.11 105.34">
  <defs>
    <style>
      .cls-1 {
        stroke-width: 4px;
      }

      .cls-1, .cls-2 {
        fill: none;
        stroke: #19bfec;
        stroke-miterlimit: 10;
      }
    </style>
  </defs>
  <polygon class="cls-1" points="45.74 2.29 2 26.29 2 77.55 45.74 103.03 89.11 78.44 89.11 27.18 45.74 2.29"/>
  <polygon class="cls-2" points="24.3 55.29 24.3 64.52 31.8 68.86 39.3 64.74 39.3 56.18 31.8 51.29 24.3 55.29"/>
  <polyline class="cls-2" points="24.3 55.29 31.8 60.18 39.3 56.18"/>
  <line class="cls-2" x1="31.8" y1="60.18" x2="31.8" y2="68.86"/>
  <polygon class="cls-2" points="52 55.4 52 64.62 59.5 68.96 67 64.84 67 56.29 59.5 51.4 52 55.4"/>
  <polyline class="cls-2" points="52 55.4 59.5 60.29 67 56.29"/>
  <line class="cls-2" x1="59.5" y1="60.29" x2="59.5" y2="68.96"/>
  <polygon class="cls-2" points="38.06 34.37 38.06 43.59 45.56 47.93 53.06 43.81 53.06 35.26 45.56 30.37 38.06 34.37"/>
  <polyline class="cls-2" points="38.06 34.37 45.56 39.26 53.06 35.26"/>
  <line class="cls-2" x1="45.56" y1="39.26" x2="45.56" y2="47.93"/>
  <polyline class="cls-2" points="38.06 39.15 27.96 43.59 27.96 53.34"/>
  <polyline class="cls-2" points="34.37 67.44 45.56 74.07 56.88 67.44"/>
  <polyline class="cls-2" points="53.06 39.15 63.19 44.4 63.19 53.72"/>
</svg>